<?xml version="1.0" encoding="UTF-8" standalone="no"?>
<!DOCTYPE svg PUBLIC "-//W3C//DTD SVG 1.1//EN" "http://www.w3.org/Graphics/SVG/1.1/DTD/svg11.dtd">
<svg width="100%" height="100%" viewBox="0 0 95 95" version="1.1" xmlns="http://www.w3.org/2000/svg" xmlns:xlink="http://www.w3.org/1999/xlink" xml:space="preserve" xmlns:serif="http://www.serif.com/" style="fill-rule:evenodd;clip-rule:evenodd;stroke-linejoin:round;stroke-miterlimit:2;">
    <g transform="matrix(1,0,0,1,-3.449,-3.22473)">
        <clipPath id="_clip1">
            <rect x="4.733" y="3.225" width="94.162" height="94.191"/>
        </clipPath>
        <g clip-path="url(#_clip1)">
            <path d="M12.5,75.753C12.5,75.776 12.51,75.797 12.514,75.82C12.519,75.855 12.522,75.889 12.535,75.924C12.546,75.953 12.563,75.98 12.58,76.007C12.597,76.034 12.611,76.062 12.633,76.086C12.657,76.111 12.685,76.131 12.714,76.151C12.733,76.165 12.746,76.183 12.768,76.195L53.106,97.479C53.107,97.48 53.109,97.48 53.111,97.48C53.117,97.483 53.123,97.484 53.129,97.486C53.192,97.516 53.262,97.536 53.337,97.537L53.342,97.537C53.425,97.537 53.5,97.511 53.57,97.475C53.585,97.467 53.597,97.46 53.611,97.452C53.617,97.448 53.624,97.45 53.63,97.446L88.39,72.77C88.401,72.762 88.407,72.75 88.417,72.741C88.443,72.719 88.466,72.694 88.487,72.667C88.507,72.642 88.524,72.618 88.538,72.591C88.553,72.563 88.562,72.534 88.571,72.503C88.581,72.47 88.589,72.439 88.592,72.403C88.593,72.389 88.6,72.378 88.6,72.363L88.6,24.981C88.6,24.963 88.591,24.947 88.589,24.93C88.587,24.904 88.586,24.88 88.579,24.854C88.575,24.839 88.57,24.825 88.565,24.811C88.555,24.785 88.542,24.763 88.528,24.739C88.519,24.723 88.517,24.706 88.507,24.692C88.504,24.687 88.499,24.685 88.495,24.68C88.486,24.669 88.477,24.659 88.468,24.649C88.448,24.628 88.426,24.611 88.404,24.593C88.384,24.578 88.367,24.561 88.346,24.549C88.341,24.546 88.338,24.541 88.333,24.538L47.993,3.276C47.972,3.265 47.95,3.265 47.928,3.257C47.892,3.244 47.857,3.23 47.82,3.226C47.791,3.223 47.763,3.226 47.735,3.228C47.699,3.229 47.665,3.23 47.631,3.239C47.599,3.248 47.57,3.264 47.541,3.28C47.518,3.291 47.492,3.296 47.47,3.311L12.71,28.007C12.705,28.01 12.703,28.016 12.698,28.02C12.687,28.028 12.678,28.038 12.668,28.046C12.646,28.066 12.63,28.088 12.612,28.111C12.597,28.131 12.58,28.148 12.568,28.168C12.565,28.173 12.56,28.176 12.557,28.181C12.554,28.187 12.554,28.194 12.551,28.201C12.54,28.224 12.535,28.25 12.528,28.275C12.52,28.301 12.51,28.325 12.507,28.351C12.505,28.366 12.504,28.379 12.503,28.394C12.503,28.401 12.499,28.407 12.499,28.414L12.499,75.753L12.5,75.753ZM47.799,4.305L56.243,8.756L55.774,8.62C55.759,8.616 55.746,8.619 55.732,8.616C55.716,8.613 55.705,8.605 55.69,8.603L51.402,8.122C51.387,8.121 51.375,8.126 51.36,8.126C51.346,8.126 51.335,8.119 51.321,8.12L46.99,8.337C46.975,8.337 46.963,8.345 46.949,8.347C46.935,8.349 46.922,8.345 46.907,8.348L42.839,9.245C42.823,9.248 42.811,9.259 42.796,9.264C42.781,9.269 42.765,9.267 42.75,9.274L39.184,10.805C39.166,10.812 39.155,10.827 39.138,10.837C39.122,10.846 39.104,10.848 39.089,10.859L36.268,12.893C36.248,12.907 36.238,12.928 36.221,12.944C36.203,12.961 36.182,12.971 36.166,12.991L34.307,15.376C34.286,15.403 34.278,15.435 34.263,15.465C34.25,15.49 34.232,15.511 34.223,15.539L33.435,18.142C33.434,18.144 33.435,18.147 33.434,18.15C33.428,18.173 33.43,18.198 33.426,18.223C33.423,18.245 33.413,18.265 33.413,18.287L33.413,26.184C33.413,26.196 33.419,26.206 33.42,26.219C33.421,26.231 33.416,26.241 33.418,26.253L33.789,28.915L33.789,28.921C33.798,28.986 33.82,29.045 33.85,29.099C33.851,29.1 33.851,29.102 33.852,29.104L35.318,31.62C35.326,31.634 35.341,31.639 35.35,31.651C35.372,31.683 35.391,31.717 35.421,31.744L37.893,33.91C37.91,33.925 37.932,33.931 37.95,33.944C37.966,33.954 37.975,33.969 37.992,33.978L41.317,35.707C41.33,35.714 41.345,35.711 41.359,35.717C41.378,35.725 41.392,35.738 41.411,35.744L45.327,36.859C45.345,36.864 45.362,36.863 45.38,36.866C45.389,36.867 45.396,36.873 45.405,36.874L49.671,37.377C49.691,37.379 49.71,37.38 49.729,37.38C49.738,37.38 49.747,37.38 49.755,37.379L54.108,37.139C54.113,37.139 54.117,37.136 54.122,37.136C54.144,37.134 54.166,37.134 54.189,37.129L58.257,36.232C58.273,36.229 58.284,36.218 58.299,36.213C58.314,36.209 58.329,36.21 58.343,36.204L61.931,34.695C61.956,34.684 61.975,34.664 61.998,34.649C62.008,34.643 62.02,34.645 62.03,34.638L64.83,32.604C64.854,32.586 64.869,32.561 64.89,32.539C64.904,32.525 64.921,32.519 64.934,32.503L66.772,30.097C66.806,30.053 66.825,30.003 66.841,29.953C66.844,29.946 66.851,29.943 66.853,29.936L67.64,27.311C67.648,27.287 67.644,27.263 67.647,27.239C67.651,27.215 67.662,27.193 67.662,27.168L67.662,19.293C67.662,19.284 67.657,19.276 67.656,19.267C67.656,19.255 67.658,19.244 67.657,19.233C67.657,19.231 67.658,19.229 67.658,19.227L67.308,16.58L67.307,16.58C67.304,16.556 67.29,16.534 67.284,16.51C67.272,16.469 67.263,16.427 67.242,16.391L65.756,13.875C65.742,13.852 65.721,13.838 65.704,13.818C65.687,13.797 65.677,13.773 65.656,13.755L65.548,13.659L87.145,25.043L53.299,49.092L13.952,28.352L47.799,4.305ZM66.33,16.812L66.652,19.252L65.923,21.664L64.184,23.942L61.491,25.898L57.999,27.369L54.014,28.269L49.746,28.483L45.563,27.99L41.733,26.898L38.506,25.222L36.142,23.15L34.766,20.789L34.423,18.328L35.152,15.92L36.911,13.664L39.63,11.704L43.102,10.213L47.083,9.335L51.332,9.12L55.539,9.593L59.362,10.704L62.591,12.383L64.936,14.454L66.33,16.812ZM13.5,29.244L52.838,49.979L52.838,96.208L13.5,75.451L13.5,29.244Z" style="fill-rule:nonzero;"/>
        </g>
    </g>
</svg>
